<mxfile host="drawio-plugin" modified="2023-09-13T08:49:54.434Z" agent="5.0 (Windows NT 10.0; Win64; x64) AppleWebKit/537.36 (KHTML, like Gecko) Chrome/111.0.0.0 Safari/537.36" etag="MPTBEWmv5gi6a4G6W4Fz" version="20.5.3" type="embed"><diagram name="Page-1" id="5Bxpq9-DwpG8jnzYR9lB"><mxGraphModel dx="956" dy="534" grid="1" gridSize="10" guides="1" tooltips="1" connect="1" arrows="1" fold="1" page="1" pageScale="1" pageWidth="850" pageHeight="1100" math="0" shadow="0"><root><mxCell id="0"/><mxCell id="1" parent="0"/><mxCell id="T9OIXDtlUGwoTDbXOJ1C-1" value="&lt;b&gt;&lt;font face=&quot;Verdana&quot;&gt;STUDENT&lt;/font&gt;&lt;/b&gt;" style="shape=umlActor;verticalLabelPosition=bottom;verticalAlign=top;html=1;outlineConnect=0;" parent="1" vertex="1"><mxGeometry x="100" y="100" width="30" height="60" as="geometry"/></mxCell><mxCell id="T9OIXDtlUGwoTDbXOJ1C-4" value="&lt;font face=&quot;Verdana&quot;&gt;&lt;b&gt;TEACHER&lt;/b&gt;&lt;/font&gt;" style="shape=umlActor;verticalLabelPosition=bottom;verticalAlign=top;html=1;outlineConnect=0;" parent="1" vertex="1"><mxGeometry x="90" y="290" width="30" height="60" as="geometry"/></mxCell><mxCell id="T9OIXDtlUGwoTDbXOJ1C-5" value="&lt;font face=&quot;Verdana&quot;&gt;&lt;span style=&quot;font-size: 14px;&quot;&gt;&lt;b&gt;UPLOAD&lt;br&gt;ANSWER SHEET&lt;br&gt;&lt;/b&gt;&lt;/span&gt;&lt;/font&gt;" style="ellipse;whiteSpace=wrap;html=1;" parent="1" vertex="1"><mxGeometry x="350" y="150" width="150" height="60" as="geometry"/></mxCell><mxCell id="T9OIXDtlUGwoTDbXOJ1C-6" value="&lt;font face=&quot;Verdana&quot;&gt;&lt;span style=&quot;font-size: 14px;&quot;&gt;&lt;b&gt;VIEW&amp;nbsp;&lt;br&gt;RESULT&lt;br&gt;&lt;/b&gt;&lt;/span&gt;&lt;/font&gt;" style="ellipse;whiteSpace=wrap;html=1;" parent="1" vertex="1"><mxGeometry x="350" y="230" width="150" height="60" as="geometry"/></mxCell><mxCell id="T9OIXDtlUGwoTDbXOJ1C-7" value="&lt;font face=&quot;Verdana&quot;&gt;&lt;span style=&quot;font-size: 14px;&quot;&gt;&lt;b&gt;LOGIN&lt;/b&gt;&lt;/span&gt;&lt;/font&gt;" style="ellipse;whiteSpace=wrap;html=1;" parent="1" vertex="1"><mxGeometry x="350" y="320" width="150" height="60" as="geometry"/></mxCell><mxCell id="T9OIXDtlUGwoTDbXOJ1C-8" value="&lt;font face=&quot;Verdana&quot;&gt;&lt;span style=&quot;font-size: 14px;&quot;&gt;&lt;b&gt;DECLARE&amp;nbsp;&lt;br&gt;RESULT&lt;br&gt;&lt;/b&gt;&lt;/span&gt;&lt;/font&gt;" style="ellipse;whiteSpace=wrap;html=1;" parent="1" vertex="1"><mxGeometry x="350" y="400" width="150" height="60" as="geometry"/></mxCell><mxCell id="T9OIXDtlUGwoTDbXOJ1C-10" value="&lt;font face=&quot;Verdana&quot;&gt;&lt;span style=&quot;font-size: 14px;&quot;&gt;&lt;b&gt;PUBLISH&amp;nbsp;&lt;br&gt;RESULT&lt;br&gt;&lt;/b&gt;&lt;/span&gt;&lt;/font&gt;" style="ellipse;whiteSpace=wrap;html=1;" parent="1" vertex="1"><mxGeometry x="590" y="390" width="150" height="60" as="geometry"/></mxCell><mxCell id="T9OIXDtlUGwoTDbXOJ1C-12" value="" style="endArrow=none;html=1;rounded=0;entryX=0;entryY=0.5;entryDx=0;entryDy=0;" parent="1" target="T9OIXDtlUGwoTDbXOJ1C-5" edge="1"><mxGeometry width="50" height="50" relative="1" as="geometry"><mxPoint x="130" y="130" as="sourcePoint"/><mxPoint x="360" y="110" as="targetPoint"/></mxGeometry></mxCell><mxCell id="T9OIXDtlUGwoTDbXOJ1C-13" value="" style="endArrow=none;html=1;rounded=0;entryX=0.08;entryY=0.201;entryDx=0;entryDy=0;entryPerimeter=0;" parent="1" target="T9OIXDtlUGwoTDbXOJ1C-6" edge="1"><mxGeometry width="50" height="50" relative="1" as="geometry"><mxPoint x="130" y="130" as="sourcePoint"/><mxPoint x="360" y="190" as="targetPoint"/></mxGeometry></mxCell><mxCell id="T9OIXDtlUGwoTDbXOJ1C-14" value="" style="endArrow=none;html=1;rounded=0;entryX=0;entryY=0;entryDx=0;entryDy=0;" parent="1" target="T9OIXDtlUGwoTDbXOJ1C-7" edge="1"><mxGeometry width="50" height="50" relative="1" as="geometry"><mxPoint x="130" y="130" as="sourcePoint"/><mxPoint x="350" y="350" as="targetPoint"/></mxGeometry></mxCell><mxCell id="T9OIXDtlUGwoTDbXOJ1C-15" value="" style="endArrow=none;html=1;rounded=0;entryX=0;entryY=0.5;entryDx=0;entryDy=0;" parent="1" target="T9OIXDtlUGwoTDbXOJ1C-7" edge="1"><mxGeometry width="50" height="50" relative="1" as="geometry"><mxPoint x="120" y="320" as="sourcePoint"/><mxPoint x="358" y="512" as="targetPoint"/></mxGeometry></mxCell><mxCell id="T9OIXDtlUGwoTDbXOJ1C-16" value="" style="endArrow=none;html=1;rounded=0;entryX=0;entryY=0.5;entryDx=0;entryDy=0;" parent="1" target="T9OIXDtlUGwoTDbXOJ1C-8" edge="1"><mxGeometry width="50" height="50" relative="1" as="geometry"><mxPoint x="120" y="320" as="sourcePoint"/><mxPoint x="360" y="420" as="targetPoint"/></mxGeometry></mxCell><mxCell id="T9OIXDtlUGwoTDbXOJ1C-26" value="" style="endArrow=open;endSize=12;dashed=1;html=1;rounded=0;fontFamily=Helvetica;fontSize=12;fontColor=default;entryX=1;entryY=0.5;entryDx=0;entryDy=0;exitX=0;exitY=0.5;exitDx=0;exitDy=0;" parent="1" source="T9OIXDtlUGwoTDbXOJ1C-10" target="T9OIXDtlUGwoTDbXOJ1C-8" edge="1"><mxGeometry width="160" relative="1" as="geometry"><mxPoint x="550" y="410" as="sourcePoint"/><mxPoint x="612" y="460" as="targetPoint"/><Array as="points"/></mxGeometry></mxCell><mxCell id="T9OIXDtlUGwoTDbXOJ1C-27" value="&lt;font face=&quot;Verdana&quot;&gt;&lt;span style=&quot;font-size: 14px;&quot;&gt;&lt;b&gt;AUTHENTICATION&lt;br&gt;&lt;/b&gt;&lt;/span&gt;&lt;/font&gt;" style="ellipse;whiteSpace=wrap;html=1;" parent="1" vertex="1"><mxGeometry x="580" y="250" width="160" height="60" as="geometry"/></mxCell><mxCell id="T9OIXDtlUGwoTDbXOJ1C-28" value="" style="endArrow=open;endSize=12;dashed=1;html=1;rounded=0;fontFamily=Helvetica;fontSize=12;fontColor=default;entryX=0;entryY=0.5;entryDx=0;entryDy=0;exitX=1;exitY=0.5;exitDx=0;exitDy=0;" parent="1" source="T9OIXDtlUGwoTDbXOJ1C-7" target="T9OIXDtlUGwoTDbXOJ1C-27" edge="1"><mxGeometry width="160" relative="1" as="geometry"><mxPoint x="590" y="230" as="sourcePoint"/><mxPoint x="500" y="240" as="targetPoint"/><Array as="points"/></mxGeometry></mxCell><mxCell id="T9OIXDtlUGwoTDbXOJ1C-29" value="&lt;font style=&quot;font-size: 9px;&quot; face=&quot;Verdana&quot;&gt;&lt;b&gt;&amp;lt;&amp;lt;&lt;font style=&quot;&quot;&gt;INCLUDE&lt;/font&gt;&amp;gt;&amp;gt;&lt;/b&gt;&lt;/font&gt;" style="text;html=1;align=center;verticalAlign=middle;resizable=0;points=[];autosize=1;strokeColor=none;fillColor=none;fontSize=12;fontFamily=Helvetica;fontColor=default;rotation=-45;" parent="1" vertex="1"><mxGeometry x="480" y="290" width="100" height="30" as="geometry"/></mxCell><mxCell id="T9OIXDtlUGwoTDbXOJ1C-30" value="&lt;font style=&quot;font-size: 9px;&quot; face=&quot;Verdana&quot;&gt;&lt;b&gt;&amp;lt;&amp;lt;EXTEND&amp;gt;&amp;gt;&lt;/b&gt;&lt;/font&gt;" style="text;html=1;align=center;verticalAlign=middle;resizable=0;points=[];autosize=1;strokeColor=none;fillColor=none;fontSize=12;fontFamily=Helvetica;fontColor=default;rotation=-15;" parent="1" vertex="1"><mxGeometry x="500" y="420" width="100" height="30" as="geometry"/></mxCell><mxCell id="T9OIXDtlUGwoTDbXOJ1C-33" value="" style="endArrow=none;html=1;rounded=0;fontFamily=Helvetica;fontSize=12;fontColor=default;" parent="1" edge="1"><mxGeometry width="50" height="50" relative="1" as="geometry"><mxPoint x="320" y="500" as="sourcePoint"/><mxPoint x="320" y="40" as="targetPoint"/></mxGeometry></mxCell><mxCell id="T9OIXDtlUGwoTDbXOJ1C-34" value="" style="endArrow=none;html=1;rounded=0;fontFamily=Helvetica;fontSize=12;fontColor=default;" parent="1" edge="1"><mxGeometry width="50" height="50" relative="1" as="geometry"><mxPoint x="750" y="500" as="sourcePoint"/><mxPoint x="750" y="40" as="targetPoint"/></mxGeometry></mxCell><mxCell id="T9OIXDtlUGwoTDbXOJ1C-35" value="" style="endArrow=none;html=1;rounded=0;fontFamily=Helvetica;fontSize=12;fontColor=default;" parent="1" edge="1"><mxGeometry width="50" height="50" relative="1" as="geometry"><mxPoint x="320" y="40" as="sourcePoint"/><mxPoint x="750" y="40" as="targetPoint"/></mxGeometry></mxCell><mxCell id="T9OIXDtlUGwoTDbXOJ1C-36" value="" style="endArrow=none;html=1;rounded=0;fontFamily=Helvetica;fontSize=12;fontColor=default;" parent="1" edge="1"><mxGeometry width="50" height="50" relative="1" as="geometry"><mxPoint x="320" y="500" as="sourcePoint"/><mxPoint x="750" y="500" as="targetPoint"/></mxGeometry></mxCell><mxCell id="T9OIXDtlUGwoTDbXOJ1C-37" value="&lt;font style=&quot;font-size: 24px;&quot; face=&quot;Verdana&quot;&gt;&lt;b&gt;USE CASE DIAGRAM&lt;/b&gt;&lt;/font&gt;" style="text;html=1;align=center;verticalAlign=middle;resizable=0;points=[];autosize=1;strokeColor=none;fillColor=none;fontSize=12;fontFamily=Helvetica;fontColor=default;" parent="1" vertex="1"><mxGeometry x="280" y="523" width="290" height="40" as="geometry"/></mxCell></root></mxGraphModel></diagram></mxfile>